<?xml version="1.0" encoding="utf-8"?>
<!-- Generator: Adobe Illustrator 16.0.3, SVG Export Plug-In . SVG Version: 6.00 Build 0)  -->
<!DOCTYPE svg PUBLIC "-//W3C//DTD SVG 1.1//EN" "http://www.w3.org/Graphics/SVG/1.1/DTD/svg11.dtd">
<svg version="1.1" id="Ebene_1" xmlns="http://www.w3.org/2000/svg" xmlns:xlink="http://www.w3.org/1999/xlink" x="0px" y="0px"
	 width="45.354px" height="45.354px" viewBox="0 0 45.354 45.354" enable-background="new 0 0 45.354 45.354" xml:space="preserve">
<g>
	<path d="M1.778,3.718h41.858c0.201,0.04,0.301,0.161,0.301,0.361v37.197c0,0.241-0.11,0.361-0.331,0.361H1.778
		c-0.241,0-0.361-0.12-0.361-0.361V4.049C1.458,3.828,1.578,3.718,1.778,3.718z M3.703,6.034v33.317h37.948V6.034H3.703z
		 M17.114,11.175h0.451c2.145,0,4.14,0.702,5.984,2.105c0.942,0.842,1.594,1.574,1.955,2.195c1.323,2.065,1.984,4.411,1.984,7.037
		v0.601c0.061,3.228-0.711,5.884-2.315,7.968c-1.924,1.985-4.47,2.988-7.638,3.007c-0.301,0-0.622-0.01-0.962-0.03l-1.443-0.09
		c-1.624-0.12-3.639-0.822-6.044-2.105c0-0.02-0.03-0.04-0.09-0.06c0.361-2.225,0.562-3.368,0.602-3.428
		c2.065,1.443,4.019,2.165,5.863,2.165l0.813,0.09c2.626,0.341,4.541-0.311,5.743-1.955c0.381-0.582,0.682-1.173,0.902-1.774
		c0.281-1.423,0.421-2.435,0.421-3.037H8.244c-0.061,0-0.09-0.221-0.09-0.662v-0.872c0-5.573,1.784-9.082,5.353-10.525
		C14.668,11.386,15.871,11.175,17.114,11.175z M12.273,20.527v0.12h11.006c0-0.301-0.17-1.032-0.511-2.195
		c-0.321-0.862-0.822-1.654-1.503-2.376c-1.063-1.042-2.346-1.563-3.849-1.563c-2.246,0-3.809,1.113-4.691,3.338
		C12.423,18.613,12.273,19.505,12.273,20.527z M30.616,11.055h7.127c0,0.34-1.013,2.205-3.037,5.593h-0.932
		C31.829,13.38,30.776,11.516,30.616,11.055z M33.773,29.188h0.872c0.18,0.24,1.253,2.035,3.217,5.382l-0.421,0.181h-6.826
		C30.776,34.31,31.829,32.455,33.773,29.188z"/>
</g>
</svg>
