<?xml version="1.0" encoding="utf-8"?>
<!-- Generator: Adobe Illustrator 16.0.3, SVG Export Plug-In . SVG Version: 6.00 Build 0)  -->
<!DOCTYPE svg PUBLIC "-//W3C//DTD SVG 1.1//EN" "http://www.w3.org/Graphics/SVG/1.1/DTD/svg11.dtd">
<svg version="1.1" id="Ebene_1" xmlns="http://www.w3.org/2000/svg" xmlns:xlink="http://www.w3.org/1999/xlink" x="0px" y="0px"
	 width="45.354px" height="45.354px" viewBox="0 0 45.354 45.354" enable-background="new 0 0 45.354 45.354" xml:space="preserve">
<g>
	<path d="M42.16,43.937l-7.907-7.706H24.068v6.101c-0.096,0.707-0.459,1.061-1.089,1.061h-0.832
		c-0.688-0.115-1.031-0.488-1.031-1.118v-6.043H10.929l-7.734,7.534c-0.669,0-1.261-0.43-1.776-1.291v-0.659l7.534-7.733V24.068
		H2.65c-0.688-0.114-1.031-0.478-1.031-1.089v-0.773c0-0.727,0.362-1.089,1.089-1.089h6.244V10.929L1.417,3.195
		c0-0.669,0.43-1.261,1.29-1.776h0.66l7.733,7.534h10.013V2.708c0-0.727,0.363-1.089,1.09-1.089h0.773
		c0.727,0,1.089,0.362,1.089,1.089v6.244h10.014l7.733-7.534h0.458c0.479,0,1.032,0.535,1.663,1.604l-7.706,7.906v10.186h6.042
		c0.746,0,1.118,0.363,1.118,1.09v0.832c-0.114,0.688-0.487,1.031-1.118,1.031h-6.042v10.014l7.534,7.733v0.459
		C43.765,42.752,43.23,43.306,42.16,43.937z M33.25,33.25V11.933H11.933V33.25H33.25z"/>
</g>
</svg>
